#!OML:ASF H:\Punching\Project 1\Capture day 1\Session 1\female.ASF
:FULLY-SPECIFIED
:DEGREES
1419
root 2.72893 14.837 -0.377754 18.7262 1.74717 2.84008
lowerback 5.55317 3.23441 5.30171
upperback -5.57077 5.09587 2.66663
thorax -8.81232 2.25282 -0.78981
lowerneck -12.4572 -3.38335 3.83841
upperneck 25.673 -5.3826 -1.07457
head 10.0867 -2.20523 -1.67599
rclavicle -2.42517e-014 -2.22639e-014
rhumerus 30.778 -11.6333 -68.9601
rradius 59.9503
rwrist -26.6321
rhand -9.83985 -22.8212
rfingers 7.12502
rthumb 16.1379 -52.1693
lclavicle -2.42517e-014 -2.22639e-014
lhumerus 26.8842 -39.6207 77.2672
lradius 135.557
lwrist 13.5056
lhand -20.0584 7.3326
lfingers 7.12502
lthumb 6.28342 37.2194
rfemur 10.0114 -9.49945 3.7222
rtibia -1.59028e-014
rfoot -15.4577 -31.4272
rtoes 2.22316
lfemur -54.4661 0.557521 -13.9999
ltibia 46.8164
lfoot -3.0229 9.18863
ltoes -2.3879
1420
root 2.74143 14.8567 -0.369034 18.7793 1.24919 2.56953
lowerback 5.50631 2.97943 5.16335
upperback -5.47428 4.74023 2.81321
thorax -8.7183 2.09677 -0.51104
lowerneck -12.511 -2.8069 4.38585
upperneck 25.7083 -4.65943 -1.25279
head 10.1125 -1.84212 -1.74798
rclavicle 7.55382e-015 9.54166e-015
rhumerus 28.6875 -9.81653 -68.6537
rradius 66.735
rwrist -32.9961
rhand -11.7522 -24.6328
rfingers 7.12502
rthumb 14.2958 -54.1207
lclavicle 7.55382e-015 9.54166e-015
lhumerus 26.8293 -39.2158 77.1075
lradius 135.804
lwrist 14.0249
lhand -20.182 7.43112
lfingers 7.12502
lthumb 6.16408 37.3214
rfemur 9.67741 -9.02244 3.88693
rtibia -2.22639e-014
rfoot -15.0237 -31.5165
rtoes 2.30402
lfemur -54.3106 0.584729 -13.631
ltibia 46.7473
lfoot -3.04624 9.77621
ltoes -2.15554
1421
root 2.7548 14.8767 -0.360301 18.8056 0.653538 2.3037
lowerback 5.50227 2.71814 5.01116
upperback -5.37531 4.37596 2.93442
thorax -8.64241 1.93531 -0.252917
lowerneck -12.5161 -2.20695 4.95485
upperneck 25.757 -3.91107 -1.41501
head 10.1413 -1.46347 -1.81441
rclavicle -4.8901e-014 -4.13472e-014
rhumerus 26.6219 -8.28247 -68.6372
rradius 73.3056
rwrist -38.5586
rhand -13.032 -26.0212
rfingers 7.12502
rthumb 13.0624 -55.5922
lclavicle -4.8901e-014 -4.13472e-014
lhumerus 26.814 -38.8197 76.9296
lradius 136.033
lwrist 14.6332
lhand -20.3022 7.52483
lfingers 7.12502
lthumb 6.04807 37.4185
rfemur 9.33782 -8.44916 4.01301
rtibia 1.90833e-014
rfoot -14.5162 -31.6192
rtoes 2.18834
lfemur -54.1163 0.646314 -13.2648
ltibia 46.7208
lfoot -3.07858 10.3923
ltoes -1.89711
1422
root 2.76907 14.9037 -0.350457 18.8195 -0.0449533 2.0645
lowerback 5.52499 2.45382 4.81411
upperback -5.28442 4.00319 3.0202
thorax -8.58788 1.77011 -0.0076484
lowerneck -12.4634 -1.5851 5.55916
upperneck 25.8346 -3.14254 -1.55848
head 10.177 -1.06944 -1.87745
rclavicle 2.54444e-014 6.52014e-014
rhumerus 24.524 -6.97086 -68.8545
rradius 79.5879
rwrist -43.071
rhand -13.6258 -27.0155
rfingers 7.12502
rthumb 12.4899 -56.6223
lclavicle 2.54444e-014 6.52014e-014
lhumerus 26.8251 -38.4248 76.7288
lradius 136.235
lwrist 15.2665
lhand -20.3924 7.60697
lfingers 7.12502
lthumb 5.96095 37.5031
rfemur 8.96718 -7.78657 4.08658
rtibia 6.36111e-015
rfoot -13.9509 -31.746
rtoes 1.92858
lfemur -53.8539 0.753808 -12.9425
ltibia 46.6967
lfoot -3.12912 11.0262
ltoes -1.6116
1423
root 2.78304 14.9241 -0.341704 18.8298 -0.840692 1.8646
lowerback 5.55675 2.18376 4.54683
upperback -5.20089 3.61458 3.07174
thorax -8.54483 1.59957 0.242351
lowerneck -12.3706 -0.936644 6.20799
upperneck 25.9603 -2.34854 -1.68823
head 10.231 -0.656685 -1.94051
rclavicle 0 -3.33958e-014
rhumerus 22.3627 -5.79114 -69.2431
rradius 85.552
rwrist -46.3739
rhand -13.6435 -27.6505
rfingers 7.12502
rthumb 12.4729 -57.2583
lclavicle 0 -3.33958e-014
lhumerus 26.8597 -38.0088 76.4951
lradius 136.405
lwrist 15.8569
lhand -20.434 7.65852
lfingers 7.12502
lthumb 5.92083 37.5558
rfemur 8.57704 -7.04513 4.08692
rtibia -4.13472e-014
rfoot -13.3638 -31.8994
rtoes 1.55755
lfemur -53.5937 0.931584 -12.6781
ltibia 46.7027
lfoot -3.17593 11.6484
ltoes -1.30748
1424
root 2.79628 14.9443 -0.333296 18.8475 -1.72042 1.7081
lowerback 5.59019 1.90442 4.19462
upperback -5.12964 3.20424 3.09622
thorax -8.51475 1.42197 0.514214
lowerneck -12.2594 -0.258283 6.89573
upperneck 26.1512 -1.52309 -1.80792
head 10.315 -0.222916 -2.00351
rclavicle -2.10712e-014 1.11319e-014
rhumerus 20.1457 -4.6539 -69.7504
rradius 91.1715
rwrist -48.391
rhand -13.2575 -27.9604
rfingers 7.12502
rthumb 12.845 -57.5451
lclavicle -2.10712e-014 1.11319e-014
lhumerus 26.8874 -37.5583 76.2447
lradius 136.543
lwrist 16.3294
lhand -20.416 7.66598
lfingers 7.12502
lthumb 5.93815 37.5628
rfemur 8.14801 -6.24277 4.02413
rtibia -6.36111e-015
rfoot -12.761 -32.0837
rtoes 1.1176
lfemur -53.314 1.18749 -12.4868
ltibia 46.7028
lfoot -3.23129 12.238
ltoes -0.999167
1425
root 2.80813 14.9639 -0.325356 18.8799 -2.66005 1.59622
lowerback 5.618 1.62138 3.76743
upperback -5.07918 2.78013 3.088
thorax -8.5003 1.24036 0.796043
lowerneck -12.1235 0.438757 7.62346
upperneck 26.4024 -0.681564 -1.91448
head 10.4264 0.225213 -2.06669
rclavicle 1.15295e-014 1.27222e-014
rhumerus 17.8709 -3.5137 -70.3121
rradius 96.4368
rwrist -49.1646
rhand -12.6891 -27.9687
rfingers 7.12502
rthumb 13.3929 -57.5182
lclavicle 1.15295e-014 1.27222e-014
lhumerus 26.8938 -37.1064 75.9816
lradius 136.656
lwrist 16.6309
lhand -20.3784 7.68675
lfingers 7.12502
lthumb 5.97451 37.5825
rfemur 7.68119 -5.40446 3.90574
rtibia -2.8625e-014
rfoot -12.1602 -32.2984
rtoes 0.639304
lfemur -53.0351 1.52015 -12.3699
ltibia 46.7117
lfoot -3.31352 12.7751
ltoes -0.726558
1426
root 2.81789 14.9827 -0.317914 18.9307 -3.63624 1.51219
lowerback 5.63484 1.33797 3.28717
upperback -5.04807 2.34881 3.05439
thorax -8.49531 1.05715 1.08287
lowerneck -11.9791 1.14836 8.38511
upperneck 26.703 0.169908 -2.01335
head 10.5652 0.683444 -2.13101
rclavicle -4.29375e-014 -3.65764e-014
rhumerus 15.5871 -2.34587 -70.8809
rradius 101.326
rwrist -48.8476
rhand -12.0722 -27.7178
rfingers 7.12502
rthumb 13.9874 -57.2272
lclavicle -4.29375e-014 -3.65764e-014
lhumerus 26.8895 -36.6595 75.7006
lradius 136.749
lwrist 16.7315
lhand -20.3445 7.72771
lfingers 7.12502
lthumb 6.00723 37.6225
rfemur 7.17982 -4.54796 3.75813
rtibia 3.18055e-015
rfoot -11.5696 -32.541
rtoes 0.128821
lfemur -52.756 1.93043 -12.305
ltibia 46.7025
lfoot -3.41718 13.2413
ltoes -0.503923
1427
root 2.8251 15.0002 -0.310722 19.0017 -4.62177 1.44028
lowerback 5.63418 1.05321 2.77552
upperback -5.03403 1.91145 3.00712
thorax -8.49267 0.872185 1.37494
lowerneck -11.8263 1.86361 9.16557
upperneck 27.0276 1.02777 -2.11083
head 10.7226 1.14727 -2.19561
rclavicle -6.95746e-015 -4.92986e-014
rhumerus 13.3625 -1.15005 -71.4206
rradius 105.818
rwrist -47.6898
rhand -11.4486 -27.2778
rfingers 7.12502
rthumb 14.5883 -56.7448
lclavicle -6.95746e-015 -4.92986e-014
lhumerus 26.8636 -36.212 75.4154
lradius 136.83
lwrist 16.6559
lhand -20.3313 7.77548
lfingers 7.12502
lthumb 6.02 37.67
rfemur 6.6543 -3.69378 3.60557
rtibia 0
rfoot -11.0074 -32.8046
rtoes -0.399477
lfemur -52.4831 2.41147 -12.2692
ltibia 46.6776
lfoot -3.55107 13.6187
ltoes -0.387914
1428
root 2.82951 15.0159 -0.303444 19.0889 -5.58209 1.36339
lowerback 5.61599 0.764583 2.26265
upperback -5.03559 1.46827 2.95524
thorax -8.48993 0.68416 1.66462
lowerneck -11.6505 2.57527 9.95858
upperneck 27.3415 1.88546 -2.21521
head 10.8826 1.61123 -2.26241
rclavicle -1.96797e-014 -1.11319e-014
rhumerus 11.2408 0.0569789 -71.9083
rradius 109.903
rwrist -45.9551
rhand -10.8295 -26.7082
rfingers 7.12502
rthumb 15.1847 -56.131
lclavicle -1.96797e-014 -1.11319e-014
lhumerus 26.8405 -35.7607 75.1106
lradius 136.914
lwrist 16.447
lhand -20.4061 7.93027
lfingers 7.12502
lthumb 5.94771 37.8268
rfemur 6.12704 -2.86633 3.47447
rtibia 0
rfoot -10.4926 -33.0797
rtoes -0.931836
lfemur -52.219 2.94349 -12.2322
ltibia 46.6427
lfoot -3.72302 13.8921
ltoes -0.36784
1429
root 2.83144 15.0295 -0.295356 19.188 -6.49333 1.26087
lowerback 5.57491 0.464478 1.7754
upperback -5.04842 1.01255 2.91516
thorax -8.47896 0.488766 1.95466
lowerneck -11.4285 3.2807 10.7535
upperneck 27.6107 2.74928 -2.33901
head 11.0282 2.0748 -2.33311
rclavicle -4.77083e-015 -1.59028e-015
rhumerus 9.27396 1.28098 -72.3343
rradius 113.577
rwrist -43.8898
rhand -10.2081 -26.0633
rfingers 7.12502
rthumb 15.7832 -55.4399
lclavicle -4.77083e-015 -1.59028e-015
lhumerus 26.8089 -35.272 74.7973
lradius 137.003
lwrist 16.1741
lhand -20.5707 8.13649
lfingers 7.12502
lthumb 5.78886 38.0374
rfemur 5.61663 -2.07843 3.38928
rtibia -2.54444e-014
rfoot -10.0354 -33.3567
rtoes -1.4708
lfemur -51.9631 3.5115 -12.1652
ltibia 46.6069
lfoot -3.93256 14.0522
ltoes -0.43494
1430
root 2.83128 15.0407 -0.286339 19.2961 -7.34075 1.13054
lowerback 5.50921 0.149102 1.31928
upperback -5.0694 0.540248 2.89337
thorax -8.45523 0.283841 2.24871
lowerneck -11.1415 3.97333 11.5406
upperneck 27.8069 3.61663 -2.4839
head 11.1442 2.53496 -2.40733
rclavicle -7.7526e-015 3.02153e-014
rhumerus 7.4871 2.50895 -72.7056
rradius 116.851
rwrist -41.6781
rhand -9.56014 -25.4002
rfingers 7.12502
rthumb 16.4072 -54.7263
lclavicle -7.7526e-015 3.02153e-014
lhumerus 26.7618 -34.7196 74.4859
lradius 137.105
lwrist 15.9226
lhand -20.8248 8.39604
lfingers 7.12502
lthumb 5.54354 38.3035
rfemur 5.13429 -1.3409 3.35163
rtibia -9.54166e-015
rfoot -9.63059 -33.625
rtoes -2.0313
lfemur -51.7196 4.09736 -12.0622
ltibia 46.5777
lfoot -4.16712 14.1026
ltoes -0.579567
